<?xml version="1.0" encoding="UTF-8"?>
<svg xmlns="http://www.w3.org/2000/svg" xmlns:xlink="http://www.w3.org/1999/xlink" viewBox="2354.065 -876.036 133.271 130.472" width="533" height="522">
<title>Arctocephalus australis — silhouette © Margot Michaud</title>
<path xmlns="http://www.w3.org/2000/svg" style="fill:#82d9e3;fill-opacity:1;stroke:none;stroke-width:0.215068" d="m 2420.4,-849.5 c -0.2,-0.1 -2.4,-1.4 -2.9,-1.7 -0.5,-0.3 -1.7,-1.5 -2.6,-2.3 -0.9,-0.9 -2.2,-2.6 -2.5,-3.1 -0.3,-0.4 -1.3,-1.5 -1.5,-2 -0.3,-0.4 -0.7,-1.1 -0.7,-1.6 -0.1,-0.5 -0.2,-1.2 -0,-1.4 0.1,-0.2 0.5,-0.9 0.7,-1.1 0.3,-0.2 0.8,-0.9 1.1,-0.9 0.3,-0.1 1.6,-0.6 2.3,-0.6 0.8,-0 2.4,0.1 3.5,-0.1 1.1,-0.2 3,-0.1 3.6,-0.4 0.6,-0.3 3,-1.4 3.3,-1.4 0.2,-0 4.2,-2.1 4.2,-2.1 0,0 2,-0.7 2.6,-1 0.7,-0.3 3.1,-1.2 3.1,-1.2 0,0 2.5,-0.6 3.9,-0.6 1.4,-0 3.7,-0.1 4.2,-0.1 0.5,0 2.4,0.2 2.7,0.4 0.3,0.2 2.3,1 2.3,1 0,0 4.5,2.2 4.6,2.3 0.1,0.1 0.9,0.5 1.2,0.7 0.3,0.2 1.1,0.4 1.4,0.8 0.3,0.4 0.5,0.7 0.5,0.9 -0,0.2 -0.3,0.6 -0.3,0.6 0,0 4.4,4.6 5.6,5.7 1.2,1.1 3.1,3.1 3.3,3.2 0.1,0.1 4.2,5.3 5,6.2 0.7,0.9 3.8,4.9 3.8,4.9 0,0 3.5,4.7 3.8,5.2 0.3,0.5 2.8,4.6 3.2,5 0.3,0.4 1.4,3.3 1.6,4.3 0.2,1 0.4,2.4 0.5,2.7 0,0.3 0.5,7.9 0.5,8.1 0,0.2 -0.2,1.6 -0.3,1.9 -0.1,0.3 -2.4,9.9 -2.4,10.1 -0,0.3 -1.5,4.1 -1.6,4.4 -0.1,0.4 -0.6,2.1 -0.7,2.7 -0.1,0.5 -0.2,1.2 -0.5,2.1 -0.3,0.9 -0.4,2.2 -0.4,2.2 l -0.3,9 c 0,0 -0.4,7.2 -0.4,7.5 0,0.3 0.3,2.5 0.7,3.2 0.3,0.7 1.1,1.8 1.3,2.2 0.3,0.4 0.9,1.2 1,1.7 0.1,0.4 0.5,0.8 0.2,1.5 -0.3,0.7 -1,1.6 -1,1.6 0,0 -1.2,0.9 -1.6,1.1 -0.4,0.1 -1.6,0.3 -2.2,0.5 -0.6,0.2 -2,0.1 -2,0.1 0,0 -0.5,3 -0.7,3.2 -0.1,0.2 -1.2,2.1 -1.5,2.7 -0.3,0.7 -1.1,2.2 -1.8,2.8 -0.7,0.6 -2.9,2.1 -3.2,2.3 -0.3,0.2 -4,1.9 -4.6,2.2 -0.6,0.3 -8.8,2.7 -9.4,2.8 -0.6,0.1 -4.2,0.8 -4.7,0.8 -0.5,0 -6.3,-0.1 -6.9,-0.1 -0.5,0 -1.5,0.2 -2.7,-0.2 -1.2,-0.3 -1.5,-0.3 -1.7,-0.5 -0.3,-0.3 -2.4,-0.6 -0.2,-0.7 2.3,-0.1 3.3,-0.4 3.4,-0.4 0.1,-0 1.2,-0.7 1.2,-0.7 0,0 0.1,-0.2 -0.3,-0.3 -0.4,-0 -2.3,0 -2.5,0 -0.3,0 -0.9,0.1 -0.9,-0.3 0.1,-0.3 -0.5,-0.3 0.3,-0.5 0.9,-0.1 2.5,-0.2 3,-0.4 0.4,-0.1 1.5,-0.7 1.5,-0.7 0,0 -0.2,-0.1 -0.7,-0.1 -0.5,-0 -1,-0.4 -1,-0.4 0,0 0.9,-0.3 1.3,-0.3 0.4,0 0.6,-0.2 1,-0.3 0.4,-0.2 0.6,0.1 0.6,-0.3 0,-0.3 -0.5,-0.8 -0.5,-0.8 0,0 -1.1,-0.1 -0.2,-0.4 0.9,-0.4 1,-0.3 1.1,-0.6 0.1,-0.3 0.3,-0.5 0.1,-0.7 -0.2,-0.2 -0.5,-0.1 -0.3,-0.4 0.2,-0.3 -0.2,-0.3 0.7,-0.5 0.9,-0.3 1.2,-0.3 1.6,-0.5 0.4,-0.2 0.8,-0.2 1.1,-0.7 0.3,-0.5 0.8,-2.3 0.8,-2.7 0,-0.4 -0.5,-4.2 -0.6,-4.7 -0.2,-0.5 -0.8,-1.8 -0.8,-1.8 l -1.4,0.2 c 0,0 -5.9,0.9 -6.1,0.9 -0.2,0 -6,0.4 -6.3,0.4 -0.3,-0 -4,0 -4.3,0 -0.3,0 -2.4,-0 -2.4,-0 0,0 -8.2,-0.4 -8.9,-0.6 -0.7,-0.1 -6.3,-0.8 -6.8,-0.9 -0.5,-0.1 -2.5,-0.5 -2.8,-0.5 -0.3,-0.1 -1.1,0.4 -1.8,0.2 -0.7,-0.2 -0.2,-0.5 -1.9,-0.7 -1.7,-0.2 -1.9,-0.1 -2.4,-0.1 -0.5,0 -4.1,0.4 -4.1,0.4 0,0 -1.2,0.1 -1.6,0.2 -0.4,0.1 -2.1,1 -2.9,1.1 -0.8,0.1 -1.4,0.1 -2.3,0.1 -0.9,0.1 -1.7,0.1 -1.7,0.1 0,0 -0.3,0.3 -0.8,0.4 -0.5,0.1 -1.5,0.2 -1.8,0.2 -0.4,0 -1.6,0.1 -1.6,0.1 0,0 0.1,0.5 1.4,1 1.3,0.4 3.7,1.3 4.1,1.6 0.3,0.3 1.4,1.3 1.5,1.5 0.1,0.2 1.3,0.8 1.6,1.3 0.2,0.5 1.1,1.4 1.4,2 0.4,0.7 1.1,1.9 1.6,2.7 0.5,0.8 1.7,1.6 1.8,2 0.1,0.4 0.1,1.2 0.1,1.5 -0,0.3 -0.8,1 -1,1.2 -0.3,0.2 -1.7,0.9 -1.9,0.9 -0.1,0 -1.1,0 -1.7,0.2 -0.6,0.1 -1.2,-0.2 -1.7,-0.5 -0.5,-0.3 -1.1,-0.9 -1.5,-0.8 -0.4,0 -1.8,-0 -2.4,-0.3 -0.5,-0.3 -3.9,-1.9 -4.1,-2 -0.2,-0.1 -4.9,-2.6 -5.7,-2.9 -0.8,-0.3 -2.2,-0.5 -2.6,-0.6 -0.5,-0.1 -2.1,-0.9 -2.8,-1.1 -0.7,-0.3 -1.1,-0.2 -2,-1 -0.9,-0.8 -1.2,-1.2 -1.5,-1.6 -0.4,-0.4 -0.7,-0.7 -0.8,-1.2 -0,-0.5 0.3,-1.5 0.3,-1.5 0,0 -1.7,-0.2 -2.1,-0.2 -0.4,-0 -3.1,0.2 -3.6,0.2 -0.5,-0.1 -1,-0.2 -1.6,-0.4 -0.6,-0.2 -0.6,-1.2 -0.6,-1.2 0,0 0.5,-0.5 0.9,-0.6 0.3,-0.1 1.3,-0.6 1.8,-0.9 0.5,-0.3 2.4,-1.8 2.9,-2.2 0.5,-0.3 1.2,-1 1.4,-1.5 0.2,-0.4 0.4,-1.2 0.3,-1.7 -0.1,-0.5 -0.5,-2.1 -0.5,-2.3 0,-0.2 0.1,-6.1 0.1,-6.4 0,-0.3 0.6,-8 0.6,-8 0,0 0.9,-5.9 1,-6.3 0.1,-0.4 0.7,-2.2 0.8,-3 0.1,-0.7 1.3,-5 1.3,-5 0,0 1.3,-3.1 1.5,-3.5 0.2,-0.4 1.4,-1.7 1.7,-2.2 0.3,-0.5 2,-2.1 2.2,-2.2 0.2,-0.2 1.8,-1.3 2.5,-1.8 0.7,-0.5 3.7,-1.8 4.4,-2.1 0.7,-0.3 4.7,-1.5 4.7,-1.5 l 2,-0.6 c 0,0 8.9,-1.8 9.8,-1.9 0.8,-0 8.1,-1.2 8.1,-1.2 0,0 9.7,-2.6 10.1,-2.6 0.4,0 11.4,-2.8 12.6,-2.9 1.2,-0.2 5.9,-1.2 6.4,-1.4 0.5,-0.2 1.6,-0.9 1.6,-0.9 0,0 -0.4,-0.6 -0.4,-0.8 0,-0.2 -0.1,-0.8 -0.1,-1.2 0,-0.4 -0,-1.6 0,-2 0,-0.4 0.3,-1.6 0.4,-2 0.1,-0.3 0.2,-1.2 0.1,-1.5 -0,-0.3 -0.4,-1 -0.5,-1.3 -0.1,-0.3 -1.7,-1.9 -1.8,-2.1 -0.1,-0.1 -0.9,-0.8 -1,-1.1 -0.1,-0.3 -0.4,-0.9 -0.8,-1.1 -0.4,-0.2 -3.4,-1.8 -4.5,-1.9 -1.1,-0.1 -6.4,-3.2 -6.4,-3.2 z"/>
</svg>
