<?xml version="1.0" encoding="UTF-8"?>
<svg xmlns="http://www.w3.org/2000/svg" xmlns:xlink="http://www.w3.org/1999/xlink" viewBox="2526.452 1091.352 273.996 89.396" width="1096" height="358">
<title>Bassariscus astutus — silhouette © Margot Michaud</title>
<path xmlns="http://www.w3.org/2000/svg" style="fill:#81ada7;fill-opacity:1;stroke:none;stroke-width:0.264583px" d="m 2762.4,1141.1 4.6,0.7 c 0,0 0.5,0.3 1.6,0.4 1.1,0.1 2.2,-0.1 2.4,-0.1 0.2,0 0.7,-0.2 1.1,-0.2 0.5,-0 1,-0.1 1.3,0.1 0.3,0.2 0.7,0.5 1,0.6 0.3,0.1 2.1,0.2 2.1,0.2 h 1.3 l 3.1,0.8 2.2,0.5 c 0,0 1.5,0.2 1.6,0.1 0.2,-0 1,-0.2 1,-0.2 l 0.7,-0.5 h 1.5 c 0,0 0.9,-0.2 1.3,-0.3 0.3,-0.2 0.8,-0.5 0.9,-0.7 0.1,-0.2 0.1,-0.4 0.1,-0.6 0,-0.2 0.1,-0.8 0.1,-0.8 0,0 -0.1,-0.3 -0.2,-0.6 -0.1,-0.2 -0.7,-0.9 -0.7,-0.9 l -1.9,-1.8 -2.5,-2.7 c 0,0 -1,-2 -1.1,-2.1 -0,-0.1 -1.8,-3.5 -1.8,-3.5 0,0 -1.6,-2.9 -1.9,-3.2 -0.2,-0.3 -1.1,-1.5 -1.5,-1.8 -0.4,-0.3 -1.1,-1 -1.1,-1 0,0 -0.7,-0.9 -0.9,-1.1 -0.2,-0.2 -0.5,-0.5 -0.6,-0.8 -0.1,-0.3 -0,-1.3 -0,-1.3 l 0.9,-4.4 c 0,0 0.3,-3.9 0.2,-4.1 -0,-0.2 -0.6,-2.3 -0.6,-2.3 0,0 -0.1,-0.7 -0.4,-1.1 -0.4,-0.4 -0.7,-0.7 -1.4,-0.9 -0.7,-0.2 -0.8,-0.4 -1.2,-0.2 -0.4,0.2 -1.8,1.8 -1.8,1.8 l -2.8,2.9 -1.4,1.4 -0.4,0.3 c 0,0 -1.5,-0.4 -2,-0.3 -0.4,0 -1.2,0.1 -1.5,0.3 -0.3,0.2 -1,0.7 -1.2,1 -0.2,0.3 -0.9,2.8 -0.9,2.8 0,0 -0.4,0.9 -0.5,1 -0.1,0.1 -1.3,0.2 -1.3,0.2 l -3,0.8 -5.1,-0 -3.6,-0.1 c 0,0 -4.1,-0.7 -4.5,-0.9 -0.5,-0.2 -6,-1.4 -6.3,-1.7 -0.2,-0.3 -3.5,-1.7 -3.5,-1.7 0,0 -5.5,-2.5 -6.6,-2.8 -1.1,-0.3 -5.3,-2.2 -6.1,-2.8 -0.9,-0.6 -3.4,-2.3 -4.1,-2.7 -0.7,-0.3 -3.7,-1.4 -4.3,-1.5 -0.6,-0.1 -4.4,-1.3 -4.8,-1.5 -0.4,-0.1 -6.1,-1.2 -6.4,-1.3 -0.3,-0.1 -5.4,-0.2 -6.6,-0.4 -1.2,-0.2 -4.9,-0.6 -5.7,-0.6 -0.7,0 -2.4,0.2 -2.4,0.2 0,0 -3.4,1 -3.7,1 -0.3,0 -7.3,1.7 -7.9,1.7 -0.6,0 -5.9,1.9 -5.9,1.9 0,0 -11,3 -11.7,3.2 -0.8,0.2 -6,1.7 -6.8,1.9 -0.9,0.2 -3.4,1.3 -4.3,1.6 -0.9,0.3 -4.1,0.8 -4.7,0.9 -0.7,0.1 -7.7,0.9 -8.2,0.9 -0.6,0.1 1.1,0.4 1.1,0.4 l -3.1,0.7 -3.2,0.9 0.9,0.2 c 0,0 -3.6,1.9 -4.7,2.3 -1.1,0.4 -3.3,0.9 -4.1,1.3 -0.8,0.4 -4.3,3.7 -6.1,3.9 -1.8,0.2 -3.1,1 -4.6,1.6 -1.5,0.6 -4.1,1.5 -5.3,2 -1.2,0.5 -4.7,2.3 -6,2.7 -1.3,0.5 -5.7,1.3 -6.7,1.4 -1,0.1 -0.1,0.8 -0.1,0.8 0,0 -1.6,0.5 -2.1,0.6 -0.5,0.1 -15.4,4.2 -15.4,4.2 0,0 -3.1,0.6 -5.5,0.9 -2.4,0.4 -5.3,0.4 -7.4,1.2 -2.1,0.9 -5.4,2.3 -6.8,2.8 -1.4,0.6 -9.5,5.7 -10.1,6.1 -0.6,0.5 -5,2.9 -5,2.9 h 1.3 c 0,0 -1.4,1.5 -2.2,2.2 -0.8,0.7 -1.9,2 -1.9,3 0,1 0.5,2.9 0.5,2.9 l 1.2,-0.1 c 0,0 -0.3,0.7 -0.3,1 0,0.4 1.6,1.1 1.6,1.1 0,0 2.9,-0.4 3.5,-0.7 0.6,-0.3 1.3,-0.1 3.4,-0.5 2.1,-0.4 6.1,-1.3 6.1,-1.3 l 1.2,-0.1 c 0,0 -1.2,0.9 -0.9,0.9 0.4,0 2.6,-0.4 3.6,-0.6 0.9,-0.2 2.2,-0.3 2.2,-0.3 0,0 -2.2,1 -0.9,1 1.3,0 4.9,-0.9 5.9,-1 0.9,-0.2 2,-0.9 3.8,-1.1 1.8,-0.3 5.2,-0.9 5.2,-0.9 0,0 -1.6,2 -0.6,1.7 1,-0.3 2.8,-0.7 2.8,-0.7 l 4,-0.5 c 0,0 0.4,0 0.9,0 0.5,0 3.1,-0.9 4.3,-1.4 1.2,-0.5 4.8,-1.5 5.7,-1.9 0.9,-0.4 3.6,-2.8 3.6,-2.8 l -0.1,1.8 2.4,0.7 c 0,0 4.3,-2.2 4.4,-1.7 0.2,0.5 0,1.9 0.9,1.2 0.9,-0.7 1.4,-1.1 1.4,-1.1 l 3.2,-0.6 5.3,-2.7 -0.8,0.2 3.1,-0.8 1.3,1.2 c 0,0 4.9,-1.6 5.6,-2.1 0.7,-0.5 4.8,-2.6 6,-3.4 1.2,-0.9 4.9,-2.6 4.9,-2.6 l 0.9,1.2 1,-0.9 c 0,0 -0.1,1.3 0.5,0.8 0.6,-0.6 1.1,-2.1 1.8,-2.6 0.7,-0.5 1.6,-1.1 2,-1.3 0.4,-0.2 5.1,-1.5 5.1,-1.5 0,0 -0.6,1.2 0.2,0.7 0.8,-0.5 4.2,-4.1 4.8,-4.4 0.6,-0.3 3.5,-1.1 3.5,-1.1 l 0.3,1.2 1.7,-1.1 c 0,0 -0.5,1.3 0.2,0.7 0.7,-0.5 3.7,-2.2 3.7,-2.2 0,0 0.4,0.7 0.3,1.1 -0.1,0.5 -1.5,2.1 -1.5,2.1 l 0.9,0.1 -0.5,0.6 c 0,0 0.4,0.3 0.5,0.7 0.1,0.3 0.2,0.7 0.2,1.2 0,0.5 -0.2,1.7 -0.4,2.1 -0.2,0.4 -1.6,2.3 -1.6,2.3 0,0 -3.4,3.6 -3.6,3.9 -0.2,0.3 -0.8,1 -0.9,1.5 -0.1,0.5 -0.3,1.1 -0.4,1.4 -0.1,0.3 -1.8,7.7 -1.8,7.7 0,0 -10e-4,1.9 -0.1,2.1 -0.1,0.2 -0.2,0.7 -0.4,1.2 -0.2,0.4 -0.3,0.9 -0.3,1.1 0,0.2 0,0.5 0,0.5 l -0.7,0.5 c 0,0 -0.5,0.9 -0.5,1.1 -0,0.1 -0.1,0.3 -0.1,0.8 0,0.5 0.1,0.7 0.1,0.8 -0.1,0.2 -0.3,0.4 -0.2,0.7 0,0.3 0.1,0.8 0.3,1 0.2,0.2 0.9,0.8 0.9,0.8 0,0 0.8,0.2 1,0.3 0.2,0.1 0.8,0.1 1,0.1 0.2,0 1,-0.9 1,-0.9 0,0 0.6,-1.5 0.6,-1.8 0,-0.3 0.1,-0.8 0.2,-0.9 0.1,-0.1 0.5,-0.4 0.7,-0.7 0.2,-0.3 0.5,-1 0.6,-1.4 0,-0.4 0.7,-2 0.8,-2.2 0.1,-0.2 1.7,-3.2 1.8,-3.4 0.2,-0.2 1.2,-0.8 1.5,-0.9 0.3,-0.2 1.5,-0.5 1.5,-0.5 l 4.1,-1.7 c 0,0 5.3,-2.4 5.7,-2.6 0.4,-0.2 1.5,-0.8 2.4,-1.3 0.9,-0.5 2.5,-1.1 2.8,-1.3 0.3,-0.3 0.7,-0.9 1.1,-0.9 0.4,0 1,0.9 1.2,1.2 0.2,0.3 0.7,1.4 0.9,1.6 0.1,0.2 3.1,5.7 3.2,5.9 0.1,0.2 0.9,1.9 1.1,2.4 0.3,0.5 1,1.6 1.5,2.1 0.5,0.6 2.2,1.7 2.5,2 0.3,0.3 1.5,1.1 2,1.5 0.6,0.4 5.5,3.6 5.7,3.8 0.2,0.1 3,1.1 3,1.1 0,0 0.5,0.2 0.9,0 0.4,-0.1 0.9,-0.4 0.9,-0.4 0,0 0.4,0.2 1,0.3 0.7,0 1,0.2 1.6,-0 0.6,-0.2 1.2,-0.5 1.2,-0.5 0,0 0.8,0.2 1,0 0.2,-0.1 0.4,-0.5 0.7,-0.8 0.3,-0.2 0.8,-1 0.8,-1 0,0 0.2,-0.8 0.2,-1.1 0,-0.3 -0.2,-1.2 -0.2,-1.2 0,0 -0.2,-0.3 -0.5,-0.4 -0.3,-0.1 -1.8,-0.6 -1.8,-0.6 0,0 -1.2,-0.1 -1.6,-0.1 -0.4,0 -1.5,0 -1.5,0 0,0 -2.6,-1.1 -2.8,-1.3 -0.2,-0.2 -2.2,-1.9 -2.3,-2.2 -0.1,-0.2 -0.3,-1.3 -0.3,-1.6 0,-0.3 0.2,-4 0.2,-4 0,0 0.9,-1.9 0.8,-2.2 -0,-0.3 -0.2,-4.7 -0.2,-5 0,-0.3 0,-1.1 0.1,-1.3 0.1,-0.2 0.4,-0 0.4,-0.2 0,-0.2 0,-0.8 0,-1.1 0,-0.3 0,-1.1 0.3,-1.6 0.3,-0.5 0.3,-0.7 0.6,-1.1 0.3,-0.4 1.1,-0.9 1.1,-0.9 0,0 2.1,-0.2 2.3,-0.2 0.2,0 1.7,0.1 2.2,0.2 0.5,0.1 1,0 2.2,0.9 1.2,0.8 2,1.6 2.6,2.3 0.5,0.7 1.9,2.3 2.1,2.5 0.2,0.2 1.2,0.6 1.2,0.6 l 0.1,1 c 0,0 -0.4,1.2 -0.5,1.5 -0,0.3 0,5.4 0,5.4 l 0.3,3.1 c 0,0 -0.5,1.3 -0.7,1.6 -0.2,0.3 -0.5,1.6 -0.6,1.9 -0.1,0.3 -0.4,1.2 -0.5,1.4 -0.1,0.2 -0.6,1.3 -0.6,1.5 0,0.2 0.1,1.5 0.1,1.8 0,0.3 0.3,1.6 0.3,1.8 0,0.3 0.1,1.1 0.3,1.6 0.2,0.5 0.9,1.1 1.1,1.2 0.2,0.1 0.9,0.1 0.9,0.1 0,0 0.4,0.5 0.9,0.6 0.5,0.1 0.9,0.1 1.3,0.1 0.4,0 1,-0.6 1,-0.6 l 0.9,-0.2 c 0,0 0.3,-0.4 0.4,-0.8 0.1,-0.4 -0.3,-1.6 -0.3,-1.6 l -0.8,-0.7 c 0,0 -0.3,-0.1 -0.3,-0.4 0,-0.3 0.2,-1.5 0.2,-1.5 l 0.6,-1.2 1.9,-1.5 1.1,-1.6 1.5,-3.5 c 0,0 1.9,-2.5 2.1,-3 0.2,-0.5 1.2,-1.8 1.2,-1.8 l 0.4,0.5 0.4,-0.7 c 0,0 0.3,0.7 0.3,0.4 0.1,-0.3 0.4,-0.7 0.7,-1 0.3,-0.3 0.4,-0.5 1.3,-0.7 0.9,-0.3 2.7,-0.4 3,-0.7 0.3,-0.3 2.5,-2.2 2.5,-2.2 l 1.6,0.2 c 0,0 1,0.4 1.2,0.5 0.2,0.1 1.1,0.3 1.1,0.3 0,0 2.6,-0.5 3.4,-0.5 0.9,0 4.3,-0 4.5,0 0.3,0 3.1,0.7 3.3,0.9 0.2,0.1 5.2,2.3 5.2,2.3 l 1.8,1 1.3,0.9 -0,-1 c 0,0 1.7,1.4 2.1,1.6 0.4,0.2 2.4,1.5 2.6,1.6 0.2,0.1 2.3,1.4 2.3,1.4 l 0.5,-0.1 0.8,0.9 1,-0.2 c 0,0 1.5,0.7 2.3,0.9 0.8,0.2 1.4,0.9 2.2,1.1 0.9,0.2 2.4,0.5 2.9,0.5 0.5,0 1.3,-0.1 1.7,0.2 0.5,0.3 2.5,1.5 2.5,1.5 0,0 0.8,-0.1 1,-0.1 0.2,-0 0.7,0.2 1.2,0.6 0.6,0.3 1.4,0.7 1.7,0.7 0.4,0 1.1,-0 1.1,-0 0,0 0.5,0.5 0.9,0.8 0.3,0.2 0.9,0.2 0.9,0.2 l 0.9,-0.2 1.1,0.4 c 0,0 0.5,-0.3 0.7,-0.6 0.1,-0.2 0.5,-0.5 0.7,-1 0.2,-0.5 0.3,-0.7 0.3,-1 0,-0.4 0.1,-0.9 -0.4,-1.3 -0.5,-0.4 -1.7,-1.1 -1.7,-1.1 0,0 -1,-0.4 -1.4,-0.5 -0.4,-0.1 -1,-0.2 -1.4,-0.5 -0.4,-0.3 -1,-0.7 -1.6,-0.9 -0.6,-0.2 -1.7,-0.4 -1.9,-0.6 -0.2,-0.1 -3.3,-3.4 -3.3,-3.4 0,0 -4.2,-5.4 -4.6,-5.8 -0.4,-0.4 -2.3,-2.5 -2.6,-2.8 -0.3,-0.3 -0.5,-0.3 -0.6,-0.6 -0.2,-0.3 -0.2,-0.7 -0.6,-0.9 -0.4,-0.2 -0.6,-0.3 -0.8,-0.6 -0.2,-0.3 -0.5,-0.6 -0.5,-0.8 0,-0.2 0.4,-0.2 0.4,-0.2 z"/>
</svg>
