<?xml version="1.0" encoding="UTF-8"?>
<svg xmlns="http://www.w3.org/2000/svg" xmlns:xlink="http://www.w3.org/1999/xlink" viewBox="-1485.712 -662.787 175.824 130.243" width="703" height="521">
<title>Leptailurus serval — silhouette © Margot Michaud</title>
<path xmlns="http://www.w3.org/2000/svg" style="fill:#a041b0;stroke:none;stroke-width:0.264583px;fill-opacity:0.73333335" d="m -1469.5,-653.6 -1.9,-1.2 c 0,0 -0.9,-0.8 -1.2,-1 -0.3,-0.2 -0.6,-0.1 -0.7,0 -0.1,0.1 -0.3,0.9 -0.3,0.9 0,0 1,3.1 1.1,3.4 0.2,0.3 0.8,1.7 0.9,1.9 0.1,0.2 0.1,-0.1 0.1,0.2 0,0.3 0.1,0.4 0.1,0.7 -0,0.4 -0.5,3.7 -0.7,4.1 -0.2,0.4 -0.4,1 -0.7,1.4 -0.3,0.4 -1.8,2.9 -2.2,3.3 -0.4,0.3 -1.1,1.3 -1.3,1.5 -0.2,0.2 -0.7,2.2 -0.7,2.3 0,0.1 0.1,2.7 0,3 -0.1,0.3 -0.3,0.7 -0.4,0.8 -0,0 -0.8,1.3 -0.8,1.5 -0,0.2 -0.4,0.9 -0.5,1.1 -0.1,0.2 -0.3,0.6 -0.3,0.8 -0,0.2 -0.1,0.5 -0.1,0.7 -0,0.2 -0.1,0.6 -0.1,0.8 0,0.2 0.1,0.4 0.1,0.4 0,0 0.4,0.3 0.6,0.4 0.3,0.2 0.9,0.3 0.9,0.3 0,0 0.4,0.1 0.6,0.3 0.1,0.2 0.9,0.7 1.2,0.7 0.3,0 0.7,0.1 0.7,0.1 0,0 0.9,0.2 0.9,0.2 0.1,0 0.4,0 0.8,0.4 0.4,0.4 0.4,0.3 1.3,0.3 0.8,0 3.4,-0.7 3.4,-0.7 0,0 1,-0.4 2.4,-0.3 1.5,0.1 2.2,-0.1 2.7,0 0.5,0.1 2.5,2 2.5,2 0,0 1.9,2.1 2.6,2.9 0.7,0.8 2.5,4.8 2.5,4.8 0,0 1.8,2.7 2,3.3 0.3,0.6 0.5,1.4 0.5,1.6 0,0.2 0,3.8 0.2,4 0.1,0.3 1.4,4.7 2.1,6.1 0.8,1.5 1.3,5.8 1.9,6.9 0.5,1.1 1.6,2.8 1.8,3.7 0.2,0.9 0,3.2 0,3.2 l -1.4,1.8 c 0,0 -4.8,6.4 -5,6.6 -0.2,0.2 -3.9,3.7 -3.9,3.7 0,0 -3.5,3 -3.8,3.5 -0.3,0.5 -1.9,2.8 -2.2,3.3 -0.2,0.5 -2.2,3.7 -2.3,3.7 -0.1,0.1 -2.2,5 -2.2,5 0,0 -0.5,1.4 -0.6,1.6 -0.2,0.2 -0.9,1.1 -1.1,1.4 -0.2,0.3 -0.9,1.1 -0.9,1.1 l -0,1 c 0,0 0,0.2 -0.2,0.4 -0.2,0.2 -0.5,1.5 -0.5,1.6 0,0.1 -0.2,0.4 0.2,0.6 0.4,0.2 0.6,0.3 0.6,0.3 l 0.9,0 c 0,0 0.2,0.3 0.5,0.4 0.3,0.1 0.6,0.3 0.8,0.2 0.3,-0.1 0.4,-0.2 0.6,-0.2 0.3,0 0.7,0.2 1,0.1 0.3,-0.1 1.9,-1.6 2,-1.7 0.1,-0.1 0.7,-0.7 0.9,-1 0.1,-0.3 0.2,-0.8 0.2,-0.9 -0,-0.1 0.5,-0.4 0.7,-0.7 0.2,-0.4 0.3,-0.7 0.3,-0.8 0,-0.1 0.5,-2 0.7,-2.3 0.2,-0.4 0.4,-1.3 0.4,-1.3 0,0 1.1,-1.1 1.4,-1.5 0.3,-0.4 0.4,-1.1 0.6,-1.5 0.3,-0.4 0.3,-0.4 0.6,-0.5 0.3,-0.1 0.5,0.2 0.9,-0.1 0.4,-0.3 0.8,-0.9 0.8,-0.9 0.1,-0.1 0.6,-1.2 1,-1.5 0.4,-0.3 2.5,-1.9 2.9,-2.1 0.3,-0.2 1.5,-1.1 1.5,-1.1 l 6.2,-4.2 7.7,-5.3 3,-2.4 c 0,0 2.3,-1.4 2.7,-1.8 0.4,-0.5 0.9,-1.3 1,-1.6 0.1,-0.3 -0.2,-5.4 0.1,-5.6 0.3,-0.2 0.5,-0.2 0.5,-0.2 0,0 0.3,0.3 1,1 0.7,0.7 1.7,1.8 2,2.5 0.3,0.7 0.4,2.7 0.4,2.9 0,0.2 0.9,4.6 1,5.4 0.1,0.7 0.6,6.8 0.6,6.8 0,0 0,5.1 0.2,5.9 0.2,0.7 1,8.1 1,8.5 -0,0.4 -0.2,3.3 -0.2,3.3 0,0 -1.3,5.5 -1.3,5.6 0,0.1 -0,0.3 -0.3,0.3 -0.3,0 -0.9,0 -1.3,0 -0.4,0 -1.6,0.8 -1.7,1 -0.2,0.1 -0.6,0.5 -0.9,0.8 -0.2,0.3 -0.4,0.9 -0.4,1 -0,0.1 0.1,0.7 0.3,1.1 0.2,0.3 -0.4,0.7 0.6,0.8 1,0 1.2,-0.1 1.7,0.1 0.5,0.2 0.7,0.4 1.3,0.4 0.5,0.1 2.1,-0 2.1,-0 0,0 2.6,0.2 3,0.1 0.3,-0.1 1.3,-0.4 1.7,-0.9 0.4,-0.4 0.8,-2.4 0.9,-2.9 0.1,-0.4 1,-3.7 1,-4.1 0,-0.5 -0,-0.5 0.3,-1 0.3,-0.5 0.7,-2.8 1,-3.3 0.3,-0.5 0.9,-1.2 0.8,-1.7 -0.1,-0.5 -0.2,-2.1 -0.2,-2.2 0,-0.1 0.1,-5.4 0.2,-6.5 0.1,-1.1 0.5,-13.4 0.5,-13.4 0,0 0.4,-5.4 0.5,-6.3 0.1,-0.9 -0.2,-7.4 -0.2,-7.7 0,-0.3 0.8,-0.7 0.8,-0.7 0,0 1.6,0.6 1.8,0.5 0.3,-0.1 0.7,-0.4 0.7,-0.4 l 3.1,0.4 c 0,0 13.9,1.3 14.3,1.3 0.4,0 7.1,0.4 8.3,0.3 1.1,-0.1 7,-0.7 7,-0.7 0,0 1.3,-0.5 1.7,-0.2 0.4,0.3 -0.1,3.2 0.1,4.1 0.2,0.9 1.8,5.1 1.8,5.1 0,0 2.4,7.1 2.6,7.7 0.3,0.6 2.2,5.9 2.7,6.4 0.5,0.5 1,1.4 1.4,2 0.4,0.6 1.1,2.1 1.1,2.1 0,0 0.8,6.1 0.9,6.6 0.1,0.5 -0.1,1.4 -0.3,1.9 -0.2,0.4 -2.4,3.8 -2.4,3.8 l -5.1,7 -0.6,0.1 c 0,0 -0.5,-0.2 -0.7,-0.4 -0.2,-0.1 -0.9,-0.2 -1.3,-0.1 -0.5,0 -1.6,0.4 -1.7,0.4 -0.1,0.1 -1.5,0.8 -1.6,1.1 -0.2,0.3 -0.4,1.4 -0.4,1.6 -0,0.2 -0.5,0.6 0,0.9 0.5,0.4 1.4,0.4 1.5,0.3 0.1,-0 0.9,0.1 1.1,0.1 0.2,0.1 1.3,0.1 1.7,0.1 0.4,0 0.9,0 1.6,0.1 0.8,0 1.2,0.1 1.8,0 0.6,-0 1.7,-0.4 1.9,-0.4 0.2,-0 1.4,-0.5 1.6,-0.7 0.2,-0.2 7.9,-8.8 7.9,-8.8 0,0 4.9,-6.4 5.1,-6.6 0.2,-0.3 0.8,-1.9 0.7,-2.3 -0,-0.4 0.1,-1.5 0,-1.9 -0.1,-0.5 -1.3,-3.8 -1.3,-3.8 l -1.7,-7.7 c 0,0 0.2,-6 0.1,-6.3 -0.1,-0.4 0.3,-5.6 0.4,-5.9 0.1,-0.4 0.9,-1.7 1.1,-2 0.2,-0.3 1,-1.1 1.1,-1.3 0.1,-0.2 0.6,-0.8 0.6,-0.8 l 3.2,1.7 c 0,0 3.8,5.5 5.2,6.6 1.4,1 6.4,5.9 6.4,5.9 l 9.6,7.4 c 0,0 2.4,1.8 2.7,2.5 0.3,0.8 1.8,2.7 1.8,2.7 l 2.6,3 0.9,7.9 c 0,0 1.1,7.7 0.9,7.6 -0.2,-0.1 0.2,-0.1 -1.2,0.2 -1.3,0.3 -2.3,1.1 -2.4,1.6 -0.1,0.6 -0.1,1.4 0.1,1.6 0.1,0.2 0.1,1 0.9,1.1 0.8,0.1 1.6,-0.4 1.8,-0.3 0.2,0.1 0.4,0.6 1.2,0.7 0.9,0.1 1.5,0 1.5,0 l 2.2,-2.3 c 0,0 1.1,-0.8 1.1,-1.4 0,-0.5 0.4,-0.9 0.5,-1.3 0.2,-0.4 0.5,-1.1 0.5,-1.3 0,-0.2 0,-1.9 -0.1,-2.6 -0.1,-0.7 -0.3,-3.1 -0.3,-3.1 0,0 -1,-9.8 -1,-10.1 0,-0.2 -0.5,-4.6 -0.5,-4.9 -0.1,-0.3 -0.1,-1.7 -0.3,-2.2 -0.2,-0.4 -0.2,-0.7 -0.9,-1.3 -0.7,-0.7 -1.6,-1.9 -1.7,-2.1 -0.2,-0.1 -3.7,-5.7 -3.7,-6.2 -0.1,-0.4 -0.8,-2.1 -1,-2.7 -0.3,-0.6 -1.8,-7.6 -1.8,-7.6 0,0 1.4,1.5 1.8,1.7 0.4,0.3 1.6,1.1 2.3,1.4 0.7,0.3 0.9,-0.5 0.9,-0.5 l 0.9,-0.5 -0.2,-0.8 0.5,0.6 c 0,0 -0.1,-1.7 -0.1,-2 0,-0.3 0.1,-1.2 -0,-1.6 -0.1,-0.4 -0.2,-1 -0.2,-1 l 0.9,1 -1.1,-2.7 c 0,0 0.9,0.8 0.8,0.5 -0.1,-0.3 -0.7,-1.4 -0.8,-1.7 -0.2,-0.3 -1.9,-7.9 -2.1,-9.1 -0.2,-1.3 -0.9,-3.7 -0.9,-3.7 l 1,0.5 -1,-1.6 1.4,0.3 -2.1,-2.2 c 0,0 -1.6,-2.8 -2.2,-3.7 -0.6,-0.9 -2.8,-4.2 -3.3,-4.4 -0.5,-0.3 -6.2,-5.6 -6.9,-6 -0.8,-0.4 -4,-1.2 -4.8,-1.4 -0.8,-0.2 -1.6,0.1 -3,-0.2 -1.4,-0.3 -5.2,-2.1 -5.2,-2.1 0,0 -4.8,-2 -5.2,-2.1 -0.4,-0.1 -3.6,-0.9 -3.6,-0.9 0,0 -1.9,-0.7 -2.4,-0.8 -0.5,-0.2 -5.3,-0.4 -5.5,-0.4 -0.2,0 -8.3,0.1 -8.3,0.1 0,0 -6.9,-0.3 -9.1,-0.6 -2.1,-0.3 -7.5,-0.8 -9.5,-1 -2,-0.2 -5,-0.3 -5.2,-0.3 -0.2,0 -5.4,0.3 -6.9,0.3 -1.5,0 -7.7,1 -8.6,1.1 -1,0.1 -1.8,0.1 -2.9,0.1 -1.1,0 -2.2,0.2 -3.1,0.1 -0.9,-0 -4,-1.1 -4,-1.1 l -2.3,-0.9 c 0,0 -0.9,-0.4 -2.2,-0.5 -1.4,-0.1 -4.1,-0.1 -4.9,-0.1 -0.9,0 -1.4,0.4 -2.5,0 -1.1,-0.4 -3.2,-0.9 -4.3,-1.3 -1.1,-0.4 -4.5,-2 -5.2,-2.5 -0.6,-0.5 -4.4,-3.5 -4.6,-3.5 -0.2,-0.1 -1,-0.8 -1,-0.8 l -0.8,-1.8 c 0,0 -0.1,-1.5 -0.7,-2.2 -0.6,-0.7 -6.9,-5.5 -7.2,-5.8 -0.3,-0.3 -4,-2.8 -4,-2.8 l -1.5,-0.8 c 0,0 -1,-0.2 -1.2,-0.3 -0.3,-0.1 -0.8,-0.1 -1,-0 -0.2,0.1 -0.8,0.5 -0.8,0.7 -0.1,0.2 -0,1.5 -0,1.5 z"/>
</svg>
