<?xml version="1.0" encoding="UTF-8"?>
<svg xmlns="http://www.w3.org/2000/svg" xmlns:xlink="http://www.w3.org/1999/xlink" viewBox="-2778.195 1434.342 198.476 133.909" width="794" height="536">
<title>Lontra canadensis — silhouette © Margot Michaud</title>
<path xmlns="http://www.w3.org/2000/svg" style="fill:#7fc57f;fill-opacity:1;stroke:none;stroke-width:0.152503px" d="m -2756,1461.9 c -0.3,0 -2.9,0.8 -3.2,0.8 -0.3,0 -1.5,0.8 -1.7,0.9 -0.2,0.1 -0.9,0.7 -1,0.8 -0.1,0.1 -0.8,1.6 -1.1,1.6 -0.3,0 -1.5,1 -1.9,1 -0.4,0 -2.2,1.2 -2.5,1.3 -0.3,0.1 -2.3,1.1 -2.4,1.2 -0.1,0 -1,1.5 -1,1.5 0,0 -0.1,0.8 0,1.1 0.1,0.3 0.3,0.7 0.4,1 0.1,0.3 0.3,1.7 0.3,1.8 0,0.1 1,2.8 1,2.8 0,0 0.5,1.4 1.2,1.9 0.7,0.5 2.4,1.3 2.7,1.6 0.3,0.3 9.1,3.4 9.1,3.4 l 1.1,0.8 c 0,0 -0.5,-0.9 -0.4,-0.9 0.1,0 1.1,0.8 1.1,0.8 l -0.2,-0.8 c 0,0 2,1.7 2.6,2.5 0.6,0.8 1.5,1.6 1.5,1.6 l -0.1,-1.4 1,1.5 -0.2,-0.8 c 0,0 0.7,1.7 0.7,1.9 0,0.2 -0.1,0.5 0,0.2 0.1,-0.4 0.4,-1.5 0.4,-1.5 l 0.2,-0.8 c 0,0 1.1,1.7 1.2,1.8 0,0.1 0,-0.9 0,-0.9 0,0 0.6,1.2 0.9,1.4 0.3,0.2 3.8,3.5 3.8,3.5 l 0.6,-0.6 c 0,0 0.8,0.8 1.2,1.8 0.4,1 0.8,1.7 0.8,1.7 l -0.1,-1.4 c 0,0 1.6,1.6 2.1,2.3 0.5,0.7 4.2,3 4.7,3.3 0.5,0.3 3.6,1.6 4.1,2.2 0.5,0.6 2.1,2.2 2.1,2.2 l -0.2,-0.4 2.3,1.2 1.5,0.3 c 0,0 4.5,0.3 5.9,0.3 1.3,0 2,-0.1 3.3,-0.1 1.3,0 3.3,0.3 3.3,0.3 0,0 4.3,2.3 5.6,3.3 1.4,1 2.5,1.6 2.8,1.9 0.3,0.3 1.7,1.6 2.4,2.7 0.7,1.1 1.1,1.9 1.1,1.9 0,0 0.1,-1.4 0.1,-1.2 0,0.1 0.7,1.9 0.7,1.9 0,0 -3,0.9 -3.5,1 -0.5,0 -2.1,0.3 -2.1,0.3 -0,0 -4.2,0.9 -4.5,0.9 -0.3,0 -2.1,0.2 -2.2,0.2 -0.1,0 -2.8,0.8 -2.8,0.8 0,0 -1.4,-0 -1.7,0.1 -0.3,0.1 -0.9,0.5 -1.2,0.6 -0.2,0.1 0.6,0.3 0.6,0.3 0,0 0.4,0.3 0.6,0.4 0.1,0.1 0.2,0.6 0.6,0.8 0.4,0.2 0.6,0.2 0.6,0.2 0,0 -0.8,0 -1,0 -0.2,0 -0.5,0.3 -0.5,0.3 0,0 0.8,-0.1 1,0.1 0.2,0.2 0.7,0.7 0.7,0.7 l 1.2,1 c 0,0 1,0.3 1.3,0.2 0.3,-0 1.1,-0.1 1.1,-0.1 0,0 0.6,0 0.8,0.1 0.2,0.1 0.7,0.1 0.7,0.1 l -0.2,0.4 c 0,0 0.1,-0.1 0.4,-0.1 0.4,0 0.8,-0.1 1,0.1 0.2,0.1 0.3,0.4 0.6,0.6 0.3,0.2 0.8,0.4 0.9,0.4 0.1,0 1,0 1.2,-0 0.3,-0.1 1.4,-0.5 1.4,-0.5 l 1.4,-0.3 c 0,0 1.7,0.5 2.1,0.3 0.3,-0.2 4.6,-1.1 4.6,-1.1 0,0 4.6,-0.3 4.6,-0.3 0.1,0 0.7,-0.6 1.4,-0.6 0.7,0 1.1,-0.2 1.1,-0.2 l 2.7,-0.2 0.8,-0.8 1.7,-0.4 1.7,0.9 0.1,-1.6 0.8,0.5 c 0,0 -0.3,-0.7 0.6,-1.5 0.9,-0.8 1.9,-1.9 2,-2.1 0.1,-0.2 0.1,0.4 0.1,0.6 0,0.1 0.2,-0.5 0.6,-1 0.4,-0.5 1.3,-1.1 2,-1.8 0.7,-0.7 1.6,-1.3 1.6,-1.3 0,0 1.7,-1.6 2.1,-1.8 0.5,-0.2 3,-1 3,-1 l -1.2,-0.4 h 1.3 l -1.6,-1 3.4,1.2 -0.9,-1.6 1.5,0.1 0.1,-0.5 c 0,0 0.9,-0.8 1,-0.9 0.2,-0.1 5.3,-1.9 6.5,-2.1 1.2,-0.2 2.2,-0.7 3,-1 0.8,-0.3 1.4,-1 1.9,-1 0.6,0 1.5,0 1.6,-0.4 0.1,-0.4 -1,-1.9 0.1,-0.8 1.2,1.2 1.2,2.4 1.2,1.2 -0.1,-1.2 -0.1,-1.6 -0.1,-1.6 0,0 1.1,-0.7 1.2,-0.8 0.1,-0.1 1.4,2 1.4,2 l 1.9,1.7 -0.1,-1.1 c 0,0 1,0.8 1.5,1.5 0.4,0.7 0.8,1.3 0.8,1.2 0,-0.1 0.6,-1.4 0.4,-0.5 -0.2,0.8 0.5,2 0.5,2 0,0 0.4,0.4 1.5,2.1 1.1,1.7 2.5,3.9 2.5,3.9 l 0.8,3 0.2,-0.8 1.6,4.6 -1.7,2.5 -1.7,0.1 c 0,0 -1.1,-0.1 -1.5,-0.2 -0.3,-0.1 -1,-0.2 -1.7,-0.5 -0.7,-0.3 -1.8,-0.2 -2.1,-0.3 -0.3,-0.1 -1.7,-0.3 -1.2,0 0.5,0.3 0.7,0.3 0.7,0.3 0,0 -0.6,-0.1 -1.1,-0.2 -0.6,-0 -1.6,0 -1.6,0 l 0.1,0.6 c 0,0 0.3,0.4 0.1,0.6 -0.3,0.1 0,1 0.1,1.2 0.1,0.2 0,0.7 0.2,1.1 0.2,0.4 0.8,1.3 1.4,1.7 0.6,0.4 0.8,0.6 1.9,0.5 1.1,-0.1 2.4,-0.4 2.4,-0.4 0,0 0.5,0.5 1,0.6 0.5,0.1 1.2,0.1 1.6,0.1 0.4,0 1,0.2 1,0.2 l 3.3,1.8 0.6,-0.7 c 0,0 -0.5,0.5 -0.3,0.6 0.2,0.1 0.5,-0.8 1.9,-0.6 1.4,0.2 0.2,0.3 2,0.2 1.8,-0 2.4,-0.6 3.2,-0.6 0.8,0 2.8,0.4 2.8,0.4 0,0 -2.8,3.1 -3.2,3.5 -0.4,0.4 -4.7,3.1 -6.2,4.3 -1.6,1.2 -11.2,5.9 -12.2,6.4 -0.9,0.5 -9,3.7 -9,3.7 0,0 -3,0.2 -4,0.7 -1,0.5 -9.9,2.7 -9.9,2.7 0,0 -9.2,1 -9.5,1.3 -0.4,0.3 -7,1.2 -7.7,1.4 -0.7,0.2 -3.3,0.2 -3.3,0.2 0,0 -3,0.4 -3.4,0.6 -0.4,0.2 -4.9,0.7 -5.2,0.8 -0.3,0.1 -2.3,0.6 -3,0.9 -0.7,0.3 -1.4,0.7 -1.6,0.7 -0.2,0 0.9,0.4 1.3,0.4 0.4,0 7.1,-0.7 7.7,-0.7 0.6,0 7.4,0.3 8.4,0.6 1,0.3 5,0.5 5,0.5 0,0 8.4,1.2 8.5,1.2 0.1,0 6.4,0.4 6.4,0.4 0,0 9.3,-0.3 10.7,-0.3 1.3,0.1 3.9,-0.2 3.9,-0.2 l 12.1,-0.5 c 0,0 12.3,-1 13.5,-1.3 1.2,-0.2 3.9,-1.2 3.9,-1.2 0,0 7.5,-2.4 8.4,-2.7 0.9,-0.3 4.2,-1.7 4.2,-1.7 l 8.1,-5 c 0,0 3.1,-2.6 3.3,-3 0.3,-0.4 1.3,-1.6 1.3,-1.6 l 5.8,-10.4 c 0,0 1.5,-3.9 1.7,-4.9 0.2,-1 1.2,-5.5 1.2,-5.5 0,0 0.3,-4.7 0.5,-5.8 0.1,-1.1 -0.1,-6.8 -0.1,-6.8 l -1.4,-9 -1.2,-4.2 -2.3,-5.1 -3.1,-11.8 c 0,0 -2.2,-5.5 -2.6,-6.5 -0.5,-1 -2.5,-4.7 -2.5,-4.7 l -2.3,-4.1 -2.5,-3.5 -3.4,-3.1 -3.5,-4.7 -0.5,-0.8 0.6,0.2 c 0,0 -1.9,-1.2 -2.1,-1.4 -0.2,-0.1 -4.4,-2.3 -4.4,-2.3 0,0 -4.6,-3.1 -5.2,-3.4 -0.6,-0.3 -3.9,-1.7 -3.9,-1.7 l -2,-0.4 c 0,0 -1.6,-0.1 -2.8,-0.6 -1.2,-0.4 -4.5,-1 -5.1,-1.1 -0.5,-0.1 -3.1,-0.1 -3.3,-0.1 -0.3,-0.1 -7.5,0.9 -7.5,0.9 l -5.8,0.7 -3.4,0.7 -2.7,1 -4.8,1.3 -2.6,0.7 -4.4,1.5 -5.4,2.2 -3.2,1.7 -4.1,2 -4.7,2.2 c 0,0 -3.5,2.1 -3.9,2 -0.4,-0.1 -5.5,1.6 -6.2,1.7 -0.7,0.1 -3.8,1.1 -3.8,1.1 l -3.3,0.6 h -2.4 c 0,0 -1.6,0 -2.8,-0.3 -1.3,-0.3 -5.4,-1 -6.2,-1.3 -0.8,-0.3 -4.5,-0.2 -5.4,-0.6 -0.9,-0.4 -2.1,-0.7 -2.6,-0.7 -0.6,-0.1 -7.6,-0.8 -8.6,-1.1 -1,-0.3 -4.5,0.2 -5.1,0.2 -0.6,0 -3.7,0.7 -4.5,0.7 -0.8,0 -3.7,1 -4,1.1 -0.3,0.1 -3.9,1.2 -3.9,1.2 z"/>
</svg>
